PathFileType	4	(X/Y/Z)	c:/Users/goper/Files/vsCode/490R/osim_files/C06/C06_Fast_01.trc
DataRate	CameraRate	NumFrames	NumMarkers	Units                	OrigDataRate	OrigDataStartFrame	OrigNumFrames
250.00	250.00	9	36	mm	250.0	2166	3464
                Frame#	Time	LPSIS			LASIS			LTH1			LTH2			LTH3			LTH4			LLFE			LMFE			LSH1			LSH2			LSH3			LSH4			LLMAL			LMMAL			LCAL			LMTP5			LTOE			LMTP1			RPSIS			RASIS			RTH1			RTH2			RTH3			RTH4			RLFE			RMFE			RSH1			RSH2			RSH3			RSH4			RLMAL			RMMAL			RCAL			RMTP1			RTOE			RMTP5		
		X1	Y1	Z1	X2	Y2	Z2	X3	Y3	Z3	X4	Y4	Z4	X5	Y5	Z5	X6	Y6	Z6	X7	Y7	Z7	X8	Y8	Z8	X9	Y9	Z9	X10	Y10	Z10	X11	Y11	Z11	X12	Y12	Z12	X13	Y13	Z13	X14	Y14	Z14	X15	Y15	Z15	X16	Y16	Z16	X17	Y17	Z17	X18	Y18	Z18	X19	Y19	Z19	X20	Y20	Z20	X21	Y21	Z21	X22	Y22	Z22	X23	Y23	Z23	X24	Y24	Z24	X25	Y25	Z25	X26	Y26	Z26	X27	Y27	Z27	X28	Y28	Z28	X29	Y29	Z29	X30	Y30	Z30	X31	Y31	Z31	X32	Y32	Z32	X33	Y33	Z33	X34	Y34	Z34	X35	Y35	Z35	X36	Y36	Z36

2166	8.66000	-2495.49316	960.50983	164.99007	-2678.08618	949.00128	253.58386	-2677.70703	745.23523	332.62695	-2711.01855	692.05847	326.87509	-2738.74414	779.43365	302.73840	-2763.28003	723.16785	300.20444	-2833.47852	475.43045	251.27771	-2815.98828	460.29462	139.32944	-2791.57080	358.82144	278.51572	-2807.34741	315.71893	276.57541	-2852.37646	369.88513	261.57004	-2853.61279	325.72531	258.54727	-2825.79785	87.40371	215.11748	-2830.69507	106.80268	140.22383	-2759.05640	67.84636	170.79770	-2937.37817	34.24505	231.97963	-2985.69385	58.59747	165.02046	-2953.69092	41.59489	118.95181	-2494.37012	958.10144	95.37173	-2673.21313	918.53717	18.38823	-2540.75806	737.48474	-49.07634	0.00000	0.00000	0.00000	-2615.84473	728.82037	-39.74506	-2603.26074	667.20129	-34.99359	-2460.95898	426.02438	-5.55632	-2501.12549	413.10208	94.68301	-2364.22900	416.17169	-16.19129	-2328.63354	382.91351	-15.52900	-2398.43726	367.10278	-16.39881	-2360.56323	340.32001	-14.95117	-2155.49243	201.03888	27.77896	-2186.91431	205.86856	103.31661	-2105.43213	249.68394	75.62487	-2164.81543	57.36455	122.72430	-2187.57617	41.14126	74.52529	-2142.23608	66.80435	9.60687
2167	8.66400	-2502.02686	961.62903	165.01324	-2684.56152	950.53485	254.14569	-2684.02637	746.77606	333.17151	-2716.88550	693.29956	327.41129	-2744.70435	780.39233	302.89847	-2769.25317	724.10913	300.36365	-2837.43066	475.33328	251.43478	-2820.12988	460.38379	139.35493	-2794.82812	359.18167	278.93729	-2810.12939	316.00702	276.81351	-2855.62036	369.68460	261.52310	-2856.44629	325.55505	258.40845	-2825.80981	87.54964	214.90512	-2826.69189	109.21753	138.54677	-2759.13306	67.88250	170.82890	-2937.47656	34.10487	232.03793	-2985.86060	58.00918	164.97496	-2953.80835	41.29728	118.76361	-2500.88086	958.79773	95.11440	-2679.87964	919.49957	19.15350	-2548.55322	737.31024	-48.83046	0.00000	0.00000	0.00000	-2623.73633	729.43567	-39.38150	-2611.80908	667.72473	-34.67197	-2471.62183	425.16028	-5.83279	-2513.23486	411.55103	93.85335	-2375.51660	416.13022	-16.79324	-2338.54199	383.69073	-16.23863	-2409.49683	366.68381	-17.05793	-2371.26416	340.26324	-15.46819	-2164.73267	204.05650	27.07607	-2196.40991	207.95868	102.93687	-2118.02173	255.02184	74.64101	-2169.11475	60.18997	122.23546	-2190.94678	41.80869	74.17832	-2146.59961	70.47466	9.50048
2168	8.66800	-2506.53760	963.40698	164.45386	-2690.74463	952.00153	254.70401	-2690.06470	748.19940	333.62186	-2722.58984	694.51062	327.91269	-2751.59644	781.46930	303.33548	-2775.05444	724.95166	300.58661	-2841.06421	475.13733	251.58476	-2822.44971	460.08026	139.49963	-2797.86792	359.55673	279.22137	-2812.72461	316.18808	276.99011	-2858.61938	369.39627	261.41711	-2859.04712	325.32379	258.29684	-2825.94507	87.22689	214.98549	-2826.98853	109.28767	138.61185	-2759.15894	67.94743	170.89401	-2937.53613	33.96344	232.15273	-2985.93701	57.66681	164.79498	-2954.38916	41.45925	119.24780	-2507.26782	959.54840	94.93201	-2686.41919	920.53705	19.86720	-2556.29858	737.35754	-48.53241	0.00000	0.00000	0.00000	-2631.55127	730.19678	-39.09362	-2620.27100	668.26776	-34.45244	-2483.11157	424.29877	-6.29630	-2525.43530	410.26019	93.12319	-2386.79712	416.20215	-17.43843	-2350.94946	383.43195	-16.54369	-2420.41382	366.13260	-17.61337	-2382.07568	340.13553	-15.98964	-2174.22021	207.01215	26.43517	-2206.05908	210.29446	102.75861	-2131.18408	260.07706	73.63902	-2173.84546	63.04185	121.78223	-2194.42822	42.81539	73.71600	-2151.53979	74.30653	9.36593
2169	8.67200	-2513.72266	964.42743	164.37489	-2696.94336	953.63239	255.21303	-2695.91797	749.55969	334.06549	-2727.94434	695.59784	328.37988	-2757.37183	782.27557	303.26630	-2780.64478	725.55194	300.86340	-2844.49414	474.91592	251.76872	-2825.20947	459.81958	139.60150	-2800.61963	359.71243	279.47055	-2815.22046	316.35464	277.15521	-2861.36646	369.12729	261.41867	-2861.42847	325.09976	258.22156	-2826.05469	87.68889	214.84665	-2827.26880	109.33118	138.70834	-2759.17798	68.02689	170.90063	-2937.62085	33.79883	232.26186	-2986.00342	57.30904	164.75201	-2954.43091	41.30920	119.20445	-2513.71021	960.31610	94.73237	-2692.90063	921.64417	20.56392	-2563.60498	737.31195	-48.38659	0.00000	0.00000	0.00000	-2639.86694	730.95306	-38.72806	-2628.70190	668.90826	-34.23227	-2496.03613	423.15039	-5.67248	-2537.61743	409.30411	92.50076	-2398.32031	416.18604	-17.96127	-2362.36865	383.79590	-17.11114	-2431.53809	365.81418	-18.23859	-2393.16406	340.07843	-16.50791	-2183.98584	209.86584	25.92608	-2215.90259	212.27292	102.40621	-2144.53247	264.94846	72.79768	-2178.66626	66.02330	121.41551	-2198.42749	44.40529	73.32653	-2157.05103	78.13350	9.21276
2170	8.67600	-2519.99927	965.71582	164.35443	-2703.29150	955.29364	255.71437	-2701.58301	750.81274	334.50818	-2733.25049	696.59460	328.87900	-2763.41382	782.94830	303.57382	-2785.63550	725.82288	300.75839	-2848.39795	474.80832	252.21451	-2827.82617	459.54791	139.78891	-2803.12695	359.90302	279.60379	-2817.32104	316.41122	277.23550	-2863.93872	368.85800	261.54715	-2863.68628	324.87268	258.25345	-2826.16138	87.72238	214.83418	-2827.53198	109.43502	138.82964	-2759.23071	68.09769	170.93933	-2937.66138	33.64500	232.34863	-2986.09839	56.89188	164.81416	-2954.55078	41.19945	119.18551	-2519.92896	961.13080	94.58879	-2699.17871	922.75330	21.17741	-2571.24023	737.28699	-48.19860	0.00000	0.00000	0.00000	-2646.95679	731.78833	-38.62272	-2637.08667	669.63916	-34.08753	-2507.31519	422.24954	-5.94929	-2549.71875	408.66678	92.00451	-2410.24878	416.07568	-18.60284	-2373.36060	384.06055	-17.78470	-2442.99536	365.43106	-18.82072	-2404.43237	339.95206	-17.02576	-2194.01245	212.61310	25.48374	-2225.98657	214.20631	101.93027	-2158.26831	269.28125	72.11990	-2183.79102	68.99272	121.00269	-2202.92969	46.50875	72.90789	-2163.20801	82.01159	9.01217
2171	8.68000	-2526.38306	966.95135	164.33813	-2709.59375	956.85046	256.18250	-2707.02881	752.05310	334.88058	-2738.17212	697.50818	329.30267	-2768.73730	783.06335	303.73569	-2790.76147	726.12640	301.20828	-2851.01758	474.57742	252.48204	-2830.20068	459.26868	140.00648	-2805.33618	360.02826	279.61926	-2819.33203	316.50403	277.33585	-2866.78882	368.82147	262.08405	-2865.74561	324.62256	258.32440	-2826.31616	87.60670	215.03160	-2827.76123	109.54150	138.89552	-2759.22510	68.16445	170.96376	-2937.73853	33.50374	232.43829	-2986.23242	56.55738	164.87202	-2954.61963	41.05766	119.19941	-2526.16113	962.05597	94.44654	-2705.35986	923.95074	21.71476	-2578.77637	737.38440	-48.05989	0.00000	0.00000	0.00000	-2654.55762	732.67523	-38.39199	-2645.40796	670.45984	-33.93800	-2518.84375	421.60669	-6.61413	-2561.84473	408.34827	91.85441	-2422.51343	415.84241	-19.15747	-2385.64746	384.26700	-18.24220	-2454.57007	365.07822	-19.43428	-2415.95752	339.86563	-17.50134	-2204.29028	215.16687	25.11934	-2236.09863	216.13739	101.69765	-2171.75757	273.15567	71.71564	-2189.46069	71.82654	120.51479	-2207.82227	48.80799	72.51252	-2170.03711	85.91257	8.81990
2172	8.68400	-2532.48486	968.31067	164.32780	-2715.80298	958.38025	256.71811	-2712.25122	753.13049	335.24698	-2742.94678	698.23383	329.78238	-2774.42432	783.51477	304.23105	-2796.32397	726.56775	302.17935	-2853.91846	474.33755	252.74129	-2832.45044	459.04074	140.27687	-2807.31372	360.12683	279.67856	-2821.16357	316.59836	277.41824	-2868.46802	368.32520	261.98499	-2867.51343	324.29633	258.61310	-2826.62500	87.54220	214.87402	-2828.00049	109.64339	138.95073	-2759.25854	68.24749	170.95569	-2937.75537	33.43721	232.50375	-2986.30908	56.36295	164.84662	-2954.66406	40.92317	119.17585	-2532.24658	963.02472	94.38723	-2711.59448	925.23358	22.25322	-2586.39966	737.79810	-48.09337	0.00000	0.00000	0.00000	-2662.18652	733.67352	-38.17929	-2653.69165	671.33209	-33.76810	-2529.89722	420.93265	-7.24467	-2573.80127	407.57986	92.13680	-2434.63672	415.70642	-19.96013	-2396.97876	384.69690	-19.03846	-2465.59595	365.24252	-20.32514	-2427.61938	339.80676	-18.01609	-2214.86060	217.69727	24.66464	-2246.35083	218.07922	101.46218	-2184.66113	276.55051	71.75918	-2195.14795	73.87477	119.81197	-2213.84253	51.29577	72.24111	-2176.64551	89.70514	8.46449
2173	8.68800	-2538.73511	969.71814	164.40637	-2721.92383	959.89661	257.19269	-2717.48340	754.15204	335.72684	-2747.32300	698.91449	330.15692	-2779.19824	783.54175	304.91064	-2801.17505	726.69775	302.71094	-2856.39990	474.22418	253.27682	-2834.62842	458.90262	140.59824	-2808.95630	360.15353	279.67719	-2822.65088	316.59348	277.50272	-2870.36450	368.05533	262.35965	-2869.13159	324.03253	258.96793	-2826.36060	87.49568	215.07869	-2829.09570	109.44528	138.98450	-2759.14941	68.42410	170.93758	-2937.79102	33.37502	232.52565	-2986.37085	56.20164	164.81169	-2955.88354	40.82887	119.40558	-2538.30469	964.00391	94.34680	-2717.71411	926.54315	22.73911	-2593.83105	737.93091	-47.94294	0.00000	0.00000	0.00000	-2669.70654	734.71729	-37.99287	-2662.94897	672.20813	-33.47738	-2542.86719	420.19876	-7.44581	-2585.65723	408.12326	91.78277	-2447.01318	415.57190	-20.79179	-2409.51782	384.33472	-19.23172	-2477.66064	364.76013	-20.71082	-2439.42554	339.59949	-18.51673	-2224.85327	220.37541	24.07791	-2256.54980	220.09619	101.33339	-2196.84717	279.41718	71.93802	-2201.34644	75.59963	118.82306	-2220.93506	53.77429	71.90723	-2186.34863	92.46809	8.68158
2174	8.69200	-2544.79614	971.16138	164.45016	-2728.09180	961.47400	257.56015	-2722.21167	755.01898	336.03412	-2751.58350	699.44012	330.54980	-2784.73706	783.90680	305.52350	-2805.78784	726.66376	303.35391	-2858.88696	474.07022	253.67323	-2836.71582	458.74277	141.01945	-2810.37402	360.19427	279.64099	-2824.07056	316.64935	277.63712	-2872.02954	367.75955	262.88226	-2870.59814	323.74692	259.43390	-2826.46411	87.53645	215.05907	-2828.49219	109.82774	139.06003	-2759.25415	68.43851	170.98050	-2937.81201	33.28024	232.55029	-2986.43994	55.96299	164.83768	-2956.77686	38.83973	120.82281	-2544.34692	964.99878	94.32899	-2723.57422	927.90759	23.05740	-2601.37402	738.22565	-47.74483	0.00000	0.00000	0.00000	-2677.11523	735.82428	-37.82441	-2671.19873	673.28882	-33.33226	-2554.90308	419.70123	-7.93378	-2597.35352	407.47733	92.36644	-2459.05762	415.53268	-21.51339	-2421.63672	384.70511	-20.31833	-2489.67700	364.54111	-21.26814	-2451.44531	339.47513	-18.98747	-2237.02075	222.27760	24.26175	-2266.84082	222.12256	101.38274	-2208.14600	282.25403	71.80062	-2208.42334	77.67654	118.24133	-2230.07593	56.31941	71.87370	-2194.66626	95.13526	8.86217
